C:\Users\israe\Dropbox\PhDWork\ExperimentalData\subject2\145\P2S145W04_filtered35.mot
nRows=16
nColumns=28

name C:\Users\israe\Dropbox\PhDWork\ExperimentalData\subject2\145\P2S145W04_filtered35.mot
datacolumns 28
datarows 16
range 0.5670000000 0.5820000000
endheader
time	ground_force_1_vx	ground_force_1_vy	ground_force_1_vz	ground_force_1_px	ground_force_1_py	ground_force_1_pz	ground_moment_1_mx	ground_moment_1_my	ground_moment_1_mz	ground_force_2_vx	ground_force_2_vy	ground_force_2_vz	ground_force_2_px	ground_force_2_py	ground_force_2_pz	ground_moment_2_mx	ground_moment_2_my	ground_moment_2_mz	ground_force_3_vx	ground_force_3_vy	ground_force_3_vz	ground_force_3_px	ground_force_3_py	ground_force_3_pz	ground_moment_3_mx	ground_moment_3_my	ground_moment_3_mz
        0.5670000000	        0.0000000000	        0.0000000000	        0.0000000000	        0.1988394961	        0.0000558755	       -0.3004071324	        0.0000000000	       -0.0000000000	       -0.0000000000	        0.0000000007	        0.0000000000	        0.0000000003	        0.2029003516	       -0.0000795827	        0.4543649445	        0.0000000015	        0.0000000002	        0.0000000005	      -12.1585015749	      461.4053087545	      -17.9718941301	        0.2076431971	        0.0000770316	        1.3583900146	       -4.7864619850	        5.5335183369	       23.5283682205	
        0.5680000000	        0.0000000000	        0.0000000000	        0.0000000000	        0.1988394961	        0.0000558755	       -0.3004071324	        0.0000000000	       -0.0000000000	       -0.0000000000	        0.0000000009	        0.0000000000	        0.0000000010	        0.2029003516	       -0.0000795827	        0.4543649445	        0.0000000023	        0.0000000003	        0.0000000007	      -12.4979446608	      466.3214400383	      -18.5604120795	        0.2076431971	        0.0000770316	        1.3583900146	       -4.5945225351	        5.6042276496	       23.7854312964	
        0.5690000000	        0.0000000000	        0.0000000000	        0.0000000000	        0.1988394961	        0.0000558755	       -0.3004071324	        0.0000000000	       -0.0000000000	       -0.0000000000	        0.0000000012	        0.0000000000	        0.0000000020	        0.2029003516	       -0.0000795827	        0.4543649445	        0.0000000032	        0.0000000004	        0.0000000009	      -12.8534201653	      471.3011009040	      -19.1406154093	        0.2076431971	        0.0000770316	        1.3583900146	       -4.3945595847	        5.6711316110	       24.0451608752	
        0.5700000000	        0.0000000000	        0.0000000000	        0.0000000000	        0.1988394961	        0.0000558755	       -0.3004071324	        0.0000000000	       -0.0000000000	       -0.0000000000	        0.0000000014	        0.0000000000	        0.0000000032	        0.2029003516	       -0.0000795827	        0.4543649445	        0.0000000043	        0.0000000006	        0.0000000012	      -13.2207115667	      476.3463294171	      -19.7134063129	        0.2076431971	        0.0000770316	        1.3583900146	       -4.1868084254	        5.7345704281	       24.3085759446	
        0.5710000000	        0.0000000000	        0.0000000000	        0.0000000000	        0.1988394961	        0.0000558755	       -0.3004071324	        0.0000000000	       -0.0000000000	       -0.0000000000	        0.0000000016	        0.0000000000	        0.0000000048	        0.2029003516	       -0.0000795827	        0.4543649445	        0.0000000056	        0.0000000007	        0.0000000015	      -13.5957871557	      481.4573199170	      -20.2787817873	        0.2076431971	        0.0000770316	        1.3583900146	       -3.9716760932	        5.7949605115	       24.5770320219	
        0.5720000000	        0.0000000000	        0.0000000000	        0.0000000000	        0.1988394961	        0.0000558755	       -0.3004071324	        0.0000000000	       -0.0000000000	       -0.0000000000	        0.0000000018	        0.0000000000	        0.0000000066	        0.2029003516	       -0.0000795827	        0.4543649445	        0.0000000069	        0.0000000009	        0.0000000018	      -13.9746291496	      486.6330951116	      -20.8362991749	        0.2076431971	        0.0000770316	        1.3583900146	       -3.7493891595	        5.8526512565	       24.8517740518	
        0.5730000000	       -0.0000000000	        0.0000000000	        0.0000000000	        0.1988394961	        0.0000558755	       -0.3004071324	        0.0000000000	       -0.0000000000	       -0.0000000000	        0.0000000019	        0.0000000000	        0.0000000087	        0.2029003516	       -0.0000795827	        0.4543649445	        0.0000000082	        0.0000000010	        0.0000000021	      -14.3533071363	      491.8737420937	      -21.3852356739	        0.2076431971	        0.0000770316	        1.3583900146	       -3.5198480407	        5.9079434231	       25.1336534637	
        0.5740000000	       -0.0000000000	        0.0000000000	        0.0000000000	        0.1988394961	        0.0000558755	       -0.3004071324	        0.0000000000	       -0.0000000000	       -0.0000000000	        0.0000000019	        0.0000000000	        0.0000000110	        0.2029003516	       -0.0000795827	        0.4543649445	        0.0000000093	        0.0000000011	        0.0000000024	      -14.7279312270	      497.1830470258	      -21.9243455110	        0.2076431971	        0.0000770316	        1.3583900146	       -3.2827687495	        5.9611990219	       25.4230546796	
        0.5750000000	       -0.0000000000	        0.0000000000	        0.0000000000	        0.1988394961	        0.0000558755	       -0.3004071324	        0.0000000000	       -0.0000000000	        0.0000000000	        0.0000000017	        0.0000000000	        0.0000000134	        0.2029003516	       -0.0000795827	        0.4543649445	        0.0000000101	        0.0000000012	        0.0000000025	      -15.0944146845	      502.5681552064	      -22.4523709456	        0.2076431971	        0.0000770316	        1.3583900146	       -3.0378672382	        6.0128900384	       25.7198719834	
        0.5760000000	       -0.0000000000	        0.0000000000	        0.0000000000	        0.1988394961	        0.0000558755	       -0.3004071324	       -0.0000000000	       -0.0000000000	        0.0000000000	        0.0000000012	        0.0000000000	        0.0000000157	        0.2029003516	       -0.0000795827	        0.4543649445	        0.0000000104	        0.0000000012	        0.0000000025	      -15.4487481196	      508.0377890986	      -22.9690261459	        0.2076431971	        0.0000770316	        1.3583900146	       -2.7850057560	        6.0635427207	       26.0235217638	
        0.5770000000	       -0.0000000000	        0.0000000000	       -0.0000000000	        0.1988394961	        0.0000558755	       -0.3004071324	       -0.0000000000	       -0.0000000000	        0.0000000000	        0.0000000004	        0.0000000000	        0.0000000176	        0.2029003516	       -0.0000795827	        0.4543649445	        0.0000000098	        0.0000000011	        0.0000000022	      -15.7876440495	      513.6005417374	      -23.4755289539	        0.2076431971	        0.0000770316	        1.3583900146	       -2.5244984519	        6.1136777796	       26.3332095692	
        0.5780000000	       -0.0000000000	        0.0000000000	       -0.0000000000	        0.1988394961	        0.0000558755	       -0.3004071324	       -0.0000000000	       -0.0000000000	        0.0000000000	       -0.0000000008	        0.0000000000	        0.0000000188	        0.2029003516	       -0.0000795827	        0.4543649445	        0.0000000081	        0.0000000008	        0.0000000016	      -16.1091527909	      519.2622940752	      -23.9746470000	        0.2076431971	        0.0000770316	        1.3583900146	       -2.2575270799	        6.1637976821	       26.6481968068	
        0.5790000000	       -0.0000000000	        0.0000000000	       -0.0000000000	        0.1988394961	        0.0000558755	       -0.3004071324	       -0.0000000000	        0.0000000000	        0.0000000000	       -0.0000000026	        0.0000000000	        0.0000000188	        0.2029003516	       -0.0000795827	        0.4543649445	        0.0000000048	        0.0000000003	        0.0000000006	      -16.4129715152	      525.0258184814	      -24.4699672049	        0.2076431971	        0.0000770316	        1.3583900146	       -1.9861407123	        6.2144101336	       26.9677874025	
        0.5800000000	       -0.0000000000	        0.0000000000	       -0.0000000000	        0.1988394961	        0.0000558755	       -0.3004071324	       -0.0000000000	        0.0000000000	        0.0000000000	       -0.0000000049	        0.0000000000	        0.0000000170	        0.2029003516	       -0.0000795827	        0.4543649445	       -0.0000000005	       -0.0000000004	       -0.0000000010	      -16.6998726967	      530.8931807054	      -24.9648581712	        0.2076431971	        0.0000770316	        1.3583900146	       -1.7127017629	        6.2660853466	       27.2914509753	
        0.5810000000	       -0.0000000000	        0.0000000000	       -0.0000000000	        0.1988394961	        0.0000558755	       -0.3004071324	       -0.0000000000	        0.0000000000	        0.0000000000	       -0.0000000079	        0.0000000304	        0.0000000129	        0.2029003516	       -0.0000795827	        0.4543649445	       -0.0000000083	       -0.0000000014	       -0.0000000032	      -16.9708445467	      536.8662589979	      -25.4625137378	        0.2076431971	        0.0000770316	        1.3583900146	       -1.4393403832	        6.3194286144	       27.6190349801	
        0.5820000000	       -0.0000000000	        0.0000000000	       -0.0000000000	        0.1988394961	        0.0000558755	       -0.3004071324	       -0.0000000000	        0.0000000000	        0.0000000000	       -0.0000000115	        0.0000000754	        0.0000000056	        0.2029003516	       -0.0000795827	        0.4543649445	       -0.0000000190	       -0.0000000028	       -0.0000000062	      -17.2266215122	      542.9458859327	      -25.9666088391	        0.2076431971	        0.0000770316	        1.3583900146	       -1.1677648711	        6.3749713961	       27.9506045383	
